<?xml version="1.0" encoding="UTF-8" standalone="no"?>
<svg
   xmlns:dc="http://purl.org/dc/elements/1.1/"
   xmlns:cc="http://creativecommons.org/ns#"
   xmlns:rdf="http://www.w3.org/1999/02/22-rdf-syntax-ns#"
   xmlns:svg="http://www.w3.org/2000/svg"
   xmlns="http://www.w3.org/2000/svg"
   xmlns:xlink="http://www.w3.org/1999/xlink"
   xmlns:sodipodi="http://sodipodi.sourceforge.net/DTD/sodipodi-0.dtd"
   xmlns:inkscape="http://www.inkscape.org/namespaces/inkscape"
   version="1.1"
   id="svg36"
   width="604.79999"
   height="453.44"
   viewBox="0 0 604.79999 453.44"
   sodipodi:docname="logo.svg"
   inkscape:version="1.0.2 (e86c870879, 2021-01-15)">
  <metadata
     id="metadata42">
    <rdf:RDF>
      <cc:Work
         rdf:about="">
        <dc:format>image/svg+xml</dc:format>
        <dc:type
           rdf:resource="http://purl.org/dc/dcmitype/StillImage" />
        <dc:title />
      </cc:Work>
    </rdf:RDF>
  </metadata>
  <defs
     id="defs40">
    <linearGradient
       inkscape:collect="always"
       id="linearGradient421">
      <stop
         style="stop-color:#ffd5d5;stop-opacity:1;"
         offset="0"
         id="stop417" />
      <stop
         style="stop-color:#ffd5d5;stop-opacity:0;"
         offset="1"
         id="stop419" />
    </linearGradient>
    <rect
       x="187.3833"
       y="347.89653"
       width="495.68185"
       height="68.589357"
       id="rect399" />
    <meshgradient
       inkscape:collect="always"
       id="meshgradient323"
       gradientUnits="userSpaceOnUse"
       x="110.34354"
       y="127.04063"
       gradientTransform="translate(20.506097,13.435029)">
      <meshrow
         id="meshrow325">
        <meshpatch
           id="meshpatch327">
          <stop
             path="c 24.7212,0  49.4424,0  74.1636,0"
             style="stop-color:#ffffff;stop-opacity:1"
             id="stop329" />
          <stop
             path="c 0,62.0448  0,124.09  0,186.134"
             style="stop-color:#0000ff;stop-opacity:1"
             id="stop331" />
          <stop
             path="c -24.7212,0  -49.4424,0  -74.1636,0"
             style="stop-color:#ffffff;stop-opacity:1"
             id="stop333" />
          <stop
             path="c 0,-62.0448  0,-124.09  0,-186.134"
             style="stop-color:#0000ff;stop-opacity:1"
             id="stop335" />
        </meshpatch>
      </meshrow>
    </meshgradient>
    <meshgradient
       inkscape:collect="always"
       id="meshgradient337"
       gradientUnits="userSpaceOnUse"
       x="203.77893"
       y="53.657528"
       gradientTransform="translate(20.506097,13.435029)">
      <meshrow
         id="meshrow339">
        <meshpatch
           id="meshpatch341">
          <stop
             path="c 36.4172,0  72.8344,0  109.252,0"
             style="stop-color:#ffffff;stop-opacity:1"
             id="stop343" />
          <stop
             path="c 0,66.717  0,133.434  0,200.151"
             style="stop-color:#0000ff;stop-opacity:1"
             id="stop345" />
          <stop
             path="c -36.4172,0  -72.8344,0  -109.252,0"
             style="stop-color:#ffffff;stop-opacity:1"
             id="stop347" />
          <stop
             path="c 0,-66.717  0,-133.434  0,-200.151"
             style="stop-color:#0000ff;stop-opacity:1"
             id="stop349" />
        </meshpatch>
      </meshrow>
    </meshgradient>
    <meshgradient
       inkscape:collect="always"
       id="meshgradient351"
       gradientUnits="userSpaceOnUse"
       x="336.53897"
       y="124.42468"
       gradientTransform="translate(20.506097,13.435029)">
      <meshrow
         id="meshrow353">
        <meshpatch
           id="meshpatch355">
          <stop
             path="c 40.8491,0  81.6983,0  122.547,0"
             style="stop-color:#ffffff;stop-opacity:1"
             id="stop357" />
          <stop
             path="c 0,63.5387  0,127.077  0,190.616"
             style="stop-color:#0000ff;stop-opacity:1"
             id="stop359" />
          <stop
             path="c -40.8491,0  -81.6983,0  -122.547,0"
             style="stop-color:#ffffff;stop-opacity:1"
             id="stop361" />
          <stop
             path="c 0,-63.5387  0,-127.077  0,-190.616"
             style="stop-color:#0000ff;stop-opacity:1"
             id="stop363" />
        </meshpatch>
      </meshrow>
    </meshgradient>
    <meshgradient
       inkscape:collect="always"
       id="meshgradient365"
       gradientUnits="userSpaceOnUse"
       x="306.60995"
       y="248.83267"
       gradientTransform="translate(20.506097,13.435029)">
      <meshrow
         id="meshrow367">
        <meshpatch
           id="meshpatch369">
          <stop
             path="c 13.4435,0  26.887,0  40.3305,0"
             style="stop-color:#ffffff;stop-opacity:1"
             id="stop371" />
          <stop
             path="c 0,13.3591  0,26.7181  0,40.0772"
             style="stop-color:#0000ff;stop-opacity:1"
             id="stop373" />
          <stop
             path="c -13.4435,0  -26.887,0  -40.3305,0"
             style="stop-color:#ffffff;stop-opacity:1"
             id="stop375" />
          <stop
             path="c 0,-13.3591  0,-26.7181  0,-40.0772"
             style="stop-color:#0000ff;stop-opacity:1"
             id="stop377" />
        </meshpatch>
      </meshrow>
    </meshgradient>
    <meshgradient
       inkscape:collect="always"
       id="meshgradient379"
       gradientUnits="userSpaceOnUse"
       x="189.93436"
       y="249.94315"
       gradientTransform="translate(20.506097,13.435029)">
      <meshrow
         id="meshrow381">
        <meshpatch
           id="meshpatch383">
          <stop
             path="c 13.1789,0  26.3579,0  39.5368,0"
             style="stop-color:#ffffff;stop-opacity:1"
             id="stop385" />
          <stop
             path="c 0,13.2965  0,26.593  0,39.8896"
             style="stop-color:#0000ff;stop-opacity:1"
             id="stop387" />
          <stop
             path="c -13.1789,0  -26.3579,0  -39.5368,0"
             style="stop-color:#ffffff;stop-opacity:1"
             id="stop389" />
          <stop
             path="c 0,-13.2965  0,-26.593  0,-39.8896"
             style="stop-color:#0000ff;stop-opacity:1"
             id="stop391" />
        </meshpatch>
      </meshrow>
    </meshgradient>
    <linearGradient
       inkscape:collect="always"
       xlink:href="#linearGradient421"
       id="linearGradient423"
       x1="299.10617"
       y1="48.790367"
       x2="296.98483"
       y2="388.90872"
       gradientUnits="userSpaceOnUse" />
  </defs>
  <sodipodi:namedview
     pagecolor="#ffffff"
     bordercolor="#666666"
     borderopacity="1"
     objecttolerance="10"
     gridtolerance="10"
     guidetolerance="10"
     inkscape:pageopacity="0"
     inkscape:pageshadow="2"
     inkscape:window-width="1920"
     inkscape:window-height="1001"
     id="namedview38"
     showgrid="false"
     inkscape:zoom="1"
     inkscape:cx="415.84382"
     inkscape:cy="228.59388"
     inkscape:window-x="-9"
     inkscape:window-y="-9"
     inkscape:window-maximized="1"
     inkscape:current-layer="g44"
     inkscape:document-rotation="0" />
  <g
     inkscape:groupmode="layer"
     inkscape:label="Image"
     id="g44">
    <circle
       style="fill:url(#linearGradient423);fill-opacity:1"
       id="path395"
       cx="300.52042"
       cy="227.6884"
       r="222.73863" />
    <path
       style="fill:none;stroke:#000000;stroke-width:1px;stroke-linecap:butt;stroke-linejoin:miter;stroke-opacity:1"
       d="m 135.95038,152.71942 c 4.9465,-0.41443 8.42856,-0.85486 12.77657,-1.23919 5.58071,-0.49328 11.56559,-1.72504 17.40322,-2.80022 8.49927,-1.56541 17.47454,-4.04121 34.11301,-9.2969 3.40759,-1.56514 2.28661,12.81946 1.37709,15.04591 -19.55363,2.1288 -18.12324,123.52155 -10.41797,136.36396 2.5195,5.94371 9.16391,-3.01313 13.28965,-0.50626 -0.34071,11.10695 4.04662,34.76015 -0.89714,32.63334 -28.89501,-5.4474 -41.53488,-4.25748 -72.79869,4.78044 -1.98137,0.55129 -0.0682,-18.89633 1.61372,-23.54442 0.47753,-0.60401 9.31316,-2.81878 12.41165,-5.5266 4.54868,-2.22216 12.45844,-115.76322 5.1894,-126.80183 -5.43715,-0.36804 -4.23551,3.6154 -8.45642,2.1027 -3.54924,-7.77972 -10.16347,-16.48047 -5.60409,-21.21093 z"
       id="path279"
       sodipodi:nodetypes="cssccccccccccc" />
    <path
       style="fill:none;stroke:#000000;stroke-width:1px;stroke-linecap:butt;stroke-linejoin:miter;stroke-opacity:1"
       d="m 213.53643,267.14398 c 10.83501,-8.69268 24.17725,-3.85321 29.32192,0.85355 13.97413,17.21076 6.03347,26.76991 3.89775,28.75 -20.31867,16.28366 -34.37375,1.31473 -35.62278,-4.74594 -2.64356,-7.98028 -2.72527,-19.88062 2.40311,-24.85761 z"
       id="path283"
       sodipodi:nodetypes="ccccc" />
    <path
       style="fill:none;stroke:#000000;stroke-width:1.01408px;stroke-linecap:butt;stroke-linejoin:miter;stroke-opacity:1"
       d="m 330.31167,266.10799 c 11.04974,-8.76541 24.65639,-3.88545 29.90302,0.86069 14.25106,17.35477 6.15304,26.9939 3.975,28.99056 -20.72134,16.41991 -35.05497,1.32573 -36.32875,-4.78565 -2.69595,-8.04705 -2.77927,-20.04696 2.45073,-25.0656 z"
       id="path283-2"
       sodipodi:nodetypes="ccccc" />
    <path
       style="fill:none;stroke:#000000;stroke-width:1px;stroke-linecap:butt;stroke-linejoin:miter;stroke-opacity:1"
       d="m 242.53763,147.43176 c -0.17824,-26.48521 -11.20587,-81.370783 -8.66206,-79.593703 58.61674,0.288227 51.32678,-1.066132 77.51658,-1.944544 0.45824,0.20177 1.778,0.809608 1.73354,2.254171 -0.64358,20.909973 17.28256,73.854206 19.03772,93.072666 5.02424,30.88519 1.93242,61.43635 -10.69499,84.49925 -5.9874,9.17163 -11.25658,19.7621 -35.79728,22.45064 -14.99911,0.97278 -20.84835,-3.6962 -28.24008,-6.80589 -13.78431,-9.32728 -19.88521,-18.93475 -24.08728,-28.01702 -7.26337,-15.69892 -9.06658,-24.62217 -10.2074,-41.89817 1.04826,-14.73933 10.59761,-20.7678 26.11876,-24.83712 27.78752,-5.03702 33.25057,11.71419 33.67596,14.80504 2.85386,12.87936 -3.09379,24.20497 -5.74524,28.59363 -9.62984,12.2253 -14.60377,13.3849 -20.68287,15.73313 -3.22166,4.82778 6.14354,15.03547 12.55114,20.32932 5.58644,3.95306 10.26449,3.64807 13.96536,-1.23744 12.31301,-22.40839 8.92126,-48.75679 9.8553,-74.15782 -2.13944,-26.13346 -3.84854,-48.57855 -11.44629,-76.897863 0.81645,-1.69303 -12.80949,4.296246 -20.5061,15.644733 -2.18494,3.44062 1.02525,19.21297 1.76777,29.34493 -0.91651,3.26594 -17.5816,11.15323 -20.15254,8.66206 z"
       id="path309"
       sodipodi:nodetypes="cccsccccscccccccccccc" />
    <path
       style="fill:none;stroke:#000000;stroke-width:1px;stroke-linecap:butt;stroke-linejoin:miter;stroke-opacity:1"
       d="m 393.3811,167.81003 c -2.49042,-3.50587 -21.77141,9.55847 -30.6875,22.0625 -3.90315,5.04599 -7.63441,-53.70278 -5.8125,-53.0625 31.54188,4.41784 90.7064,7.44267 111.5625,7.375 0.53548,0.29805 1.29441,2.08753 0.76491,4.81241 -3.1403,16.16029 -8.7746,73.12229 -8.76491,73.87509 -1.28624,3.79487 -18.73816,-5.63426 -17.75,-6.125 -3.17662,-9.76061 2.69943,-23.32378 -0.1875,-32.5625 -5.40414,-5.83766 -14.17084,-14.40696 -16.75,-14.3125 -3.24141,9.80464 -5.09865,19.08792 -6.50418,27.89135 -4.35922,27.30386 -4.39387,46.62601 -4.54538,62.46965 -0.26481,27.69073 8.28281,50.87384 13.92456,50.8265 14.92208,0.36793 21.41228,-20.19158 21.75,-20.0625 -5.80669,-1.91363 -10.53349,-5.50427 -15.12949,-8.93768 -12.33454,-9.21444 -14.71552,-34.34877 -6.87051,-41.43732 5.45278,-5.52814 17.59783,-8.52027 32.125,-4.5 16.71451,3.85308 19.93861,15.07916 20.3125,24.0625 -3.46242,41.65251 -22.7191,59.28878 -38.8125,66.1875 -17.66395,5.6454 -32.91517,3.91366 -44.4375,-5.8125 -6.97365,-6.2752 -11.07381,-13.13759 -13.8381,-19.72349 -6.27268,-14.94455 -7.35489,-34.45388 -7.4744,-50.58901 -1.54416,-28.6956 13.67322,-76.89816 17.125,-82.4375 z"
       id="path311"
       sodipodi:nodetypes="ccccsccccssccscccccscc" />
    <path
       style="fill:url(#meshgradient323);fill-opacity:1;stroke-width:0.707107"
       d="m 130.9982,320.08421 c 0.72648,-10.63507 1.76544,-15.25186 3.54995,-15.77481 4.475,-1.31135 10.96925,-4.84083 11.64794,-6.33038 3.98665,-8.74976 8.78607,-81.51433 7.20033,-109.16499 -0.80736,-14.0779 -1.61451,-17.29945 -4.41509,-17.62193 -1.06476,-0.1226 -2.647,0.27515 -3.5161,0.88388 -0.86909,0.60874 -2.00037,1.1068 -2.51396,1.1068 -1.02501,0 -6.892,-11.80222 -7.56428,-15.21655 -0.73416,-3.72857 0.48419,-4.40191 9.51985,-5.26132 14.73571,-1.40154 32.67728,-5.2254 49.29312,-10.50577 3.58224,-1.1384 6.68468,-1.89832 6.89429,-1.6887 0.52362,0.52362 0.48291,11.07826 -0.0481,12.46197 -0.23605,0.61517 -0.84417,1.11849 -1.35135,1.11849 -1.33593,0 -4.56284,4.07853 -6.14984,7.77286 -2.03295,4.73245 -4.61924,16.20771 -5.81811,25.81471 -4.2747,34.25471 -2.95049,90.52081 2.41589,102.65241 1.20575,2.72581 1.60897,3.05836 3.69146,3.04453 1.28583,-0.009 3.72495,-0.64494 5.42028,-1.41422 1.69534,-0.76927 3.31019,-1.39868 3.58857,-1.39868 0.52987,0 2.17051,19.61389 2.16882,25.92834 -10e-4,5.98628 0.32869,5.82511 -8.68922,4.23991 -5.96298,-1.0482 -11.25972,-1.40138 -21.36379,-1.4245 -12.02836,-0.0275 -14.36987,0.17054 -22.36357,1.89173 -4.9107,1.05736 -11.59286,2.7043 -14.84924,3.65988 -3.25639,0.95558 -6.20735,1.74409 -6.55768,1.75225 -0.36449,0.008 -0.44585,-2.78318 -0.19019,-6.52591 z"
       id="path313" />
    <path
       style="fill:url(#meshgradient379);fill-opacity:1;stroke-width:0.707107"
       d="m 222.70102,301.90616 c -8.14353,-2.81091 -12.29537,-10.1782 -12.26035,-21.75553 0.0246,-8.14269 1.89384,-11.74841 7.6043,-14.66885 3.43789,-1.75821 4.94984,-2.1036 9.20836,-2.1036 4.40922,0 5.75038,0.33051 9.96277,2.45523 5.75797,2.9043 9.3233,7.43312 11.67465,14.8296 2.43213,7.65057 0.85702,12.60971 -5.49321,17.29506 -3.62917,2.67769 -10.96748,5.34695 -14.59625,5.30927 -1.22299,-0.0127 -3.96811,-0.62523 -6.10027,-1.36118 z"
       id="path315" />
    <path
       style="fill:url(#meshgradient337);fill-opacity:1;stroke-width:0.707107"
       d="m 271.56395,266.11179 c -10.33138,-2.77865 -21.33486,-10.11642 -28.58328,-19.06101 -9.36539,-11.55696 -16.43684,-30.03976 -18.25952,-47.72534 -1.02252,-9.92156 -0.33906,-14.28729 3.03389,-19.3795 5.05024,-7.62448 18.14362,-13.12712 31.23561,-13.12712 10.49528,0 17.99652,3.82 21.68532,11.04321 1.56103,3.05673 1.75777,4.30355 1.71627,10.8771 -0.0418,6.61529 -0.29193,8.04511 -2.29498,13.11689 -3.77041,9.54677 -11.2028,17.4644 -20.24106,21.56255 -4.44233,2.01425 -4.6407,2.21089 -4.6407,4.60019 0,3.70041 2.43097,7.82497 8.05706,13.67022 10.73122,11.14926 17.90466,10.57925 23.07204,-1.83336 5.56511,-13.36798 7.05466,-24.74477 7.05466,-53.88138 0,-27.91203 -2.70653,-55.28405 -7.73228,-78.19884 -3.4017,-15.509982 -3.3642,-15.409942 -5.57083,-14.861027 -4.58912,1.141573 -13.54762,7.785777 -17.86913,13.252897 -2.53915,3.21226 -2.76936,3.86431 -2.77464,7.85882 -0.003,2.39575 0.54206,8.92776 1.21161,14.51558 l 1.21737,10.15966 -1.74194,1.433 c -2.52301,2.07554 -11.34631,6.16204 -14.36095,6.65125 l -2.58379,0.41929 -4.3e-4,-4.51194 c -5.8e-4,-5.93962 -2.22314,-25.19649 -5.68616,-49.266388 -1.53928,-10.698804 -2.79869,-20.67709 -2.79869,-22.173968 v -2.721597 l 22.80419,-0.05558 c 12.54231,-0.03057 29.64546,-0.443574 38.00699,-0.917785 8.36154,-0.47421 15.55381,-0.608126 15.98282,-0.297591 0.42901,0.310535 0.96463,3.507772 1.19028,7.104969 0.53759,8.569833 2.81855,19.512464 10.4792,50.27255 6.97477,28.00602 8.68278,37.15215 9.94551,53.25635 2.54187,32.41763 -6.7113,65.85415 -22.06239,79.72294 -8.51452,7.69236 -27.38433,11.75137 -39.49205,8.49496 z"
       id="path317" />
    <path
       style="fill:url(#meshgradient351);fill-opacity:1;stroke-width:0.707107"
       d="m 415.37518,328.07236 c -15.32855,-3.34098 -26.4685,-14.53982 -32.44964,-32.62118 -3.24534,-9.81084 -4.53394,-17.99846 -5.48066,-34.82341 -1.18672,-21.09028 0.61278,-37.38379 6.82088,-61.75932 2.62265,-10.29762 7.62462,-26.13012 9.27914,-29.37088 0.88039,-1.72445 0.84632,-1.98842 -0.33851,-2.62252 -3.49315,-1.86948 -14.08897,4.56868 -24.32396,14.77956 l -6.89477,6.87852 -0.65821,-2.54865 c -1.49966,-5.80683 -3.04571,-20.96769 -3.99149,-39.14143 -0.53651,-10.30926 -1.21715,-9.47188 6.77198,-8.33157 16.9827,2.42399 76.88401,6.38303 96.6212,6.38596 8.1973,0.001 8.37125,0.131 7.35641,5.48793 -1.10691,5.84291 -3.46215,24.60939 -5.65657,45.07127 -1.16783,10.88945 -2.31698,21.5067 -2.55367,23.5939 l -0.43035,3.79489 -2.52259,-0.40936 c -1.38743,-0.22515 -4.8624,-1.52053 -7.72217,-2.87862 -6.60391,-3.13619 -6.95057,-3.91451 -6.16761,-13.84776 0.32187,-4.08354 0.59414,-10.722 0.60504,-14.75214 l 0.0198,-7.32752 -6.30417,-6.01227 c -6.13385,-5.84983 -9.85472,-8.66959 -11.44727,-8.67498 -1.377,-0.005 -5.531,15.97735 -7.63157,29.36157 -3.04066,19.37412 -5.18893,53.8466 -4.29522,68.92363 1.14016,19.23475 5.91981,37.47059 11.20685,42.75763 3.6299,3.62991 11.24294,1.72434 17.0718,-4.27311 3.2527,-3.34678 8.79758,-12.45377 8.81486,-14.47761 0.005,-0.61606 -1.08241,-1.49017 -2.48554,-1.99755 -3.67796,-1.32997 -12.50223,-7.43037 -15.42042,-10.66046 -5.18727,-5.74169 -8.24765,-14.48373 -8.24765,-23.55966 0,-12.94675 6.23437,-18.82649 20.64,-19.46595 11.67612,-0.5183 21.28876,2.30025 27.42713,8.04197 4.63694,4.33731 6.61853,9.30722 6.60421,16.56367 -0.0198,10.02428 -4.34252,27.40159 -9.23466,37.12311 -7.27807,14.46277 -20.25938,26.08713 -32.85562,29.42119 -5.84677,1.54756 -17.89279,2.29402 -22.127,1.37115 z"
       id="path319" />
    <path
       style="fill:url(#meshgradient365);fill-opacity:1;stroke-width:0.707107"
       d="m 339.72825,301.36663 c -5.28927,-1.82445 -9.83491,-6.56886 -11.36772,-11.86478 -1.74535,-6.03026 -1.64147,-14.6549 0.2274,-18.87978 3.24031,-7.32526 14.23052,-10.46978 23.92073,-6.8442 5.42904,2.03126 9.00432,5.46575 11.96171,11.49067 5.79407,11.80392 3.23829,19.10082 -8.63651,24.65771 -5.60885,2.62469 -11.21789,3.12633 -16.10561,1.44038 z"
       id="path321" />
  </g>
  <script
     id="mesh_polyfill"
     type="text/javascript">
!function(){const t=&quot;http://www.w3.org/2000/svg&quot;,e=&quot;http://www.w3.org/1999/xlink&quot;,s=&quot;http://www.w3.org/1999/xhtml&quot;,r=2;if(document.createElementNS(t,&quot;meshgradient&quot;).x)return;const n=(t,e,s,r)=&gt;{let n=new x(.5*(e.x+s.x),.5*(e.y+s.y)),o=new x(.5*(t.x+e.x),.5*(t.y+e.y)),i=new x(.5*(s.x+r.x),.5*(s.y+r.y)),a=new x(.5*(n.x+o.x),.5*(n.y+o.y)),h=new x(.5*(n.x+i.x),.5*(n.y+i.y)),l=new x(.5*(a.x+h.x),.5*(a.y+h.y));return[[t,o,a,l],[l,h,i,r]]},o=t=&gt;{let e=t[0].distSquared(t[1]),s=t[2].distSquared(t[3]),r=.25*t[0].distSquared(t[2]),n=.25*t[1].distSquared(t[3]),o=e&gt;s?e:s,i=r&gt;n?r:n;return 18*(o&gt;i?o:i)},i=(t,e)=&gt;Math.sqrt(t.distSquared(e)),a=(t,e)=&gt;t.scale(2/3).add(e.scale(1/3)),h=t=&gt;{let e,s,r,n,o,i,a,h=new g;return t.match(/(\w+\(\s*[^)]+\))+/g).forEach(t=&gt;{let l=t.match(/[\w.-]+/g),d=l.shift();switch(d){case&quot;translate&quot;:2===l.length?e=new g(1,0,0,1,l[0],l[1]):(console.error(&quot;mesh.js: translate does not have 2 arguments!&quot;),e=new g(1,0,0,1,0,0)),h=h.append(e);break;case&quot;scale&quot;:1===l.length?s=new g(l[0],0,0,l[0],0,0):2===l.length?s=new g(l[0],0,0,l[1],0,0):(console.error(&quot;mesh.js: scale does not have 1 or 2 arguments!&quot;),s=new g(1,0,0,1,0,0)),h=h.append(s);break;case&quot;rotate&quot;:if(3===l.length&amp;&amp;(e=new g(1,0,0,1,l[1],l[2]),h=h.append(e)),l[0]){r=l[0]*Math.PI/180;let t=Math.cos(r),e=Math.sin(r);Math.abs(t)&lt;1e-16&amp;&amp;(t=0),Math.abs(e)&lt;1e-16&amp;&amp;(e=0),a=new g(t,e,-e,t,0,0),h=h.append(a)}else console.error(&quot;math.js: No argument to rotate transform!&quot;);3===l.length&amp;&amp;(e=new g(1,0,0,1,-l[1],-l[2]),h=h.append(e));break;case&quot;skewX&quot;:l[0]?(r=l[0]*Math.PI/180,n=Math.tan(r),o=new g(1,0,n,1,0,0),h=h.append(o)):console.error(&quot;math.js: No argument to skewX transform!&quot;);break;case&quot;skewY&quot;:l[0]?(r=l[0]*Math.PI/180,n=Math.tan(r),i=new g(1,n,0,1,0,0),h=h.append(i)):console.error(&quot;math.js: No argument to skewY transform!&quot;);break;case&quot;matrix&quot;:6===l.length?h=h.append(new g(...l)):console.error(&quot;math.js: Incorrect number of arguments for matrix!&quot;);break;default:console.error(&quot;mesh.js: Unhandled transform type: &quot;+d)}}),h},l=t=&gt;{let e=[],s=t.split(/[ ,]+/);for(let t=0,r=s.length-1;t&lt;r;t+=2)e.push(new x(parseFloat(s[t]),parseFloat(s[t+1])));return e},d=(t,e)=&gt;{for(let s in e)t.setAttribute(s,e[s])},c=(t,e,s,r,n)=&gt;{let o,i,a=[0,0,0,0];for(let h=0;h&lt;3;++h)e[h]&lt;t[h]&amp;&amp;e[h]&lt;s[h]||t[h]&lt;e[h]&amp;&amp;s[h]&lt;e[h]?a[h]=0:(a[h]=.5*((e[h]-t[h])/r+(s[h]-e[h])/n),o=Math.abs(3*(e[h]-t[h])/r),i=Math.abs(3*(s[h]-e[h])/n),a[h]&gt;o?a[h]=o:a[h]&gt;i&amp;&amp;(a[h]=i));return a},u=[[1,0,0,0,0,0,0,0,0,0,0,0,0,0,0,0],[0,0,0,0,1,0,0,0,0,0,0,0,0,0,0,0],[-3,3,0,0,-2,-1,0,0,0,0,0,0,0,0,0,0],[2,-2,0,0,1,1,0,0,0,0,0,0,0,0,0,0],[0,0,0,0,0,0,0,0,1,0,0,0,0,0,0,0],[0,0,0,0,0,0,0,0,0,0,0,0,1,0,0,0],[0,0,0,0,0,0,0,0,-3,3,0,0,-2,-1,0,0],[0,0,0,0,0,0,0,0,2,-2,0,0,1,1,0,0],[-3,0,3,0,0,0,0,0,-2,0,-1,0,0,0,0,0],[0,0,0,0,-3,0,3,0,0,0,0,0,-2,0,-1,0],[9,-9,-9,9,6,3,-6,-3,6,-6,3,-3,4,2,2,1],[-6,6,6,-6,-3,-3,3,3,-4,4,-2,2,-2,-2,-1,-1],[2,0,-2,0,0,0,0,0,1,0,1,0,0,0,0,0],[0,0,0,0,2,0,-2,0,0,0,0,0,1,0,1,0],[-6,6,6,-6,-4,-2,4,2,-3,3,-3,3,-2,-1,-2,-1],[4,-4,-4,4,2,2,-2,-2,2,-2,2,-2,1,1,1,1]],f=t=&gt;{let e=[];for(let s=0;s&lt;16;++s){e[s]=0;for(let r=0;r&lt;16;++r)e[s]+=u[s][r]*t[r]}return e},p=(t,e,s)=&gt;{const r=e*e,n=s*s,o=e*e*e,i=s*s*s;return t[0]+t[1]*e+t[2]*r+t[3]*o+t[4]*s+t[5]*s*e+t[6]*s*r+t[7]*s*o+t[8]*n+t[9]*n*e+t[10]*n*r+t[11]*n*o+t[12]*i+t[13]*i*e+t[14]*i*r+t[15]*i*o},y=t=&gt;{let e=[],s=[],r=[];for(let s=0;s&lt;4;++s)e[s]=[],e[s][0]=n(t[0][s],t[1][s],t[2][s],t[3][s]),e[s][1]=[],e[s][1].push(...n(...e[s][0][0])),e[s][1].push(...n(...e[s][0][1])),e[s][2]=[],e[s][2].push(...n(...e[s][1][0])),e[s][2].push(...n(...e[s][1][1])),e[s][2].push(...n(...e[s][1][2])),e[s][2].push(...n(...e[s][1][3]));for(let t=0;t&lt;8;++t){s[t]=[];for(let r=0;r&lt;4;++r)s[t][r]=[],s[t][r][0]=n(e[0][2][t][r],e[1][2][t][r],e[2][2][t][r],e[3][2][t][r]),s[t][r][1]=[],s[t][r][1].push(...n(...s[t][r][0][0])),s[t][r][1].push(...n(...s[t][r][0][1])),s[t][r][2]=[],s[t][r][2].push(...n(...s[t][r][1][0])),s[t][r][2].push(...n(...s[t][r][1][1])),s[t][r][2].push(...n(...s[t][r][1][2])),s[t][r][2].push(...n(...s[t][r][1][3]))}for(let t=0;t&lt;8;++t){r[t]=[];for(let e=0;e&lt;8;++e)r[t][e]=[],r[t][e][0]=s[t][0][2][e],r[t][e][1]=s[t][1][2][e],r[t][e][2]=s[t][2][2][e],r[t][e][3]=s[t][3][2][e]}return r};class x{constructor(t,e){this.x=t||0,this.y=e||0}toString(){return`(x=${this.x}, y=${this.y})`}clone(){return new x(this.x,this.y)}add(t){return new x(this.x+t.x,this.y+t.y)}scale(t){return void 0===t.x?new x(this.x*t,this.y*t):new x(this.x*t.x,this.y*t.y)}distSquared(t){let e=this.x-t.x,s=this.y-t.y;return e*e+s*s}transform(t){let e=this.x*t.a+this.y*t.c+t.e,s=this.x*t.b+this.y*t.d+t.f;return new x(e,s)}}class g{constructor(t,e,s,r,n,o){void 0===t?(this.a=1,this.b=0,this.c=0,this.d=1,this.e=0,this.f=0):(this.a=t,this.b=e,this.c=s,this.d=r,this.e=n,this.f=o)}toString(){return`affine: ${this.a} ${this.c} ${this.e} \n       ${this.b} ${this.d} ${this.f}`}append(t){t instanceof g||console.error(&quot;mesh.js: argument to Affine.append is not affine!&quot;);let e=this.a*t.a+this.c*t.b,s=this.b*t.a+this.d*t.b,r=this.a*t.c+this.c*t.d,n=this.b*t.c+this.d*t.d,o=this.a*t.e+this.c*t.f+this.e,i=this.b*t.e+this.d*t.f+this.f;return new g(e,s,r,n,o,i)}}class w{constructor(t,e){this.nodes=t,this.colors=e}paintCurve(t,e){if(o(this.nodes)&gt;r){const s=n(...this.nodes);let r=[[],[]],o=[[],[]];for(let t=0;t&lt;4;++t)r[0][t]=this.colors[0][t],r[1][t]=(this.colors[0][t]+this.colors[1][t])/2,o[0][t]=r[1][t],o[1][t]=this.colors[1][t];let i=new w(s[0],r),a=new w(s[1],o);i.paintCurve(t,e),a.paintCurve(t,e)}else{let s=Math.round(this.nodes[0].x);if(s&gt;=0&amp;&amp;s&lt;e){let r=4*(~~this.nodes[0].y*e+s);t[r]=Math.round(this.colors[0][0]),t[r+1]=Math.round(this.colors[0][1]),t[r+2]=Math.round(this.colors[0][2]),t[r+3]=Math.round(this.colors[0][3])}}}}class m{constructor(t,e){this.nodes=t,this.colors=e}split(){let t=[[],[],[],[]],e=[[],[],[],[]],s=[[[],[]],[[],[]]],r=[[[],[]],[[],[]]];for(let s=0;s&lt;4;++s){const r=n(this.nodes[0][s],this.nodes[1][s],this.nodes[2][s],this.nodes[3][s]);t[0][s]=r[0][0],t[1][s]=r[0][1],t[2][s]=r[0][2],t[3][s]=r[0][3],e[0][s]=r[1][0],e[1][s]=r[1][1],e[2][s]=r[1][2],e[3][s]=r[1][3]}for(let t=0;t&lt;4;++t)s[0][0][t]=this.colors[0][0][t],s[0][1][t]=this.colors[0][1][t],s[1][0][t]=(this.colors[0][0][t]+this.colors[1][0][t])/2,s[1][1][t]=(this.colors[0][1][t]+this.colors[1][1][t])/2,r[0][0][t]=s[1][0][t],r[0][1][t]=s[1][1][t],r[1][0][t]=this.colors[1][0][t],r[1][1][t]=this.colors[1][1][t];return[new m(t,s),new m(e,r)]}paint(t,e){let s,n=!1;for(let t=0;t&lt;4;++t)if((s=o([this.nodes[0][t],this.nodes[1][t],this.nodes[2][t],this.nodes[3][t]]))&gt;r){n=!0;break}if(n){let s=this.split();s[0].paint(t,e),s[1].paint(t,e)}else{new w([...this.nodes[0]],[...this.colors[0]]).paintCurve(t,e)}}}class b{constructor(t){this.readMesh(t),this.type=t.getAttribute(&quot;type&quot;)||&quot;bilinear&quot;}readMesh(t){let e=[[]],s=[[]],r=Number(t.getAttribute(&quot;x&quot;)),n=Number(t.getAttribute(&quot;y&quot;));e[0][0]=new x(r,n);let o=t.children;for(let t=0,r=o.length;t&lt;r;++t){e[3*t+1]=[],e[3*t+2]=[],e[3*t+3]=[],s[t+1]=[];let r=o[t].children;for(let n=0,o=r.length;n&lt;o;++n){let o=r[n].children;for(let r=0,i=o.length;r&lt;i;++r){let i=r;0!==t&amp;&amp;++i;let h,d=o[r].getAttribute(&quot;path&quot;),c=&quot;l&quot;;null!=d&amp;&amp;(c=(h=d.match(/\s*([lLcC])\s*(.*)/))[1]);let u=l(h[2]);switch(c){case&quot;l&quot;:0===i?(e[3*t][3*n+3]=u[0].add(e[3*t][3*n]),e[3*t][3*n+1]=a(e[3*t][3*n],e[3*t][3*n+3]),e[3*t][3*n+2]=a(e[3*t][3*n+3],e[3*t][3*n])):1===i?(e[3*t+3][3*n+3]=u[0].add(e[3*t][3*n+3]),e[3*t+1][3*n+3]=a(e[3*t][3*n+3],e[3*t+3][3*n+3]),e[3*t+2][3*n+3]=a(e[3*t+3][3*n+3],e[3*t][3*n+3])):2===i?(0===n&amp;&amp;(e[3*t+3][3*n+0]=u[0].add(e[3*t+3][3*n+3])),e[3*t+3][3*n+1]=a(e[3*t+3][3*n],e[3*t+3][3*n+3]),e[3*t+3][3*n+2]=a(e[3*t+3][3*n+3],e[3*t+3][3*n])):(e[3*t+1][3*n]=a(e[3*t][3*n],e[3*t+3][3*n]),e[3*t+2][3*n]=a(e[3*t+3][3*n],e[3*t][3*n]));break;case&quot;L&quot;:0===i?(e[3*t][3*n+3]=u[0],e[3*t][3*n+1]=a(e[3*t][3*n],e[3*t][3*n+3]),e[3*t][3*n+2]=a(e[3*t][3*n+3],e[3*t][3*n])):1===i?(e[3*t+3][3*n+3]=u[0],e[3*t+1][3*n+3]=a(e[3*t][3*n+3],e[3*t+3][3*n+3]),e[3*t+2][3*n+3]=a(e[3*t+3][3*n+3],e[3*t][3*n+3])):2===i?(0===n&amp;&amp;(e[3*t+3][3*n+0]=u[0]),e[3*t+3][3*n+1]=a(e[3*t+3][3*n],e[3*t+3][3*n+3]),e[3*t+3][3*n+2]=a(e[3*t+3][3*n+3],e[3*t+3][3*n])):(e[3*t+1][3*n]=a(e[3*t][3*n],e[3*t+3][3*n]),e[3*t+2][3*n]=a(e[3*t+3][3*n],e[3*t][3*n]));break;case&quot;c&quot;:0===i?(e[3*t][3*n+1]=u[0].add(e[3*t][3*n]),e[3*t][3*n+2]=u[1].add(e[3*t][3*n]),e[3*t][3*n+3]=u[2].add(e[3*t][3*n])):1===i?(e[3*t+1][3*n+3]=u[0].add(e[3*t][3*n+3]),e[3*t+2][3*n+3]=u[1].add(e[3*t][3*n+3]),e[3*t+3][3*n+3]=u[2].add(e[3*t][3*n+3])):2===i?(e[3*t+3][3*n+2]=u[0].add(e[3*t+3][3*n+3]),e[3*t+3][3*n+1]=u[1].add(e[3*t+3][3*n+3]),0===n&amp;&amp;(e[3*t+3][3*n+0]=u[2].add(e[3*t+3][3*n+3]))):(e[3*t+2][3*n]=u[0].add(e[3*t+3][3*n]),e[3*t+1][3*n]=u[1].add(e[3*t+3][3*n]));break;case&quot;C&quot;:0===i?(e[3*t][3*n+1]=u[0],e[3*t][3*n+2]=u[1],e[3*t][3*n+3]=u[2]):1===i?(e[3*t+1][3*n+3]=u[0],e[3*t+2][3*n+3]=u[1],e[3*t+3][3*n+3]=u[2]):2===i?(e[3*t+3][3*n+2]=u[0],e[3*t+3][3*n+1]=u[1],0===n&amp;&amp;(e[3*t+3][3*n+0]=u[2])):(e[3*t+2][3*n]=u[0],e[3*t+1][3*n]=u[1]);break;default:console.error(&quot;mesh.js: &quot;+c+&quot; invalid path type.&quot;)}if(0===t&amp;&amp;0===n||r&gt;0){let e=window.getComputedStyle(o[r]).stopColor.match(/^rgb\s*\(\s*(\d+)\s*,\s*(\d+)\s*,\s*(\d+)\s*\)$/i),a=window.getComputedStyle(o[r]).stopOpacity,h=255;a&amp;&amp;(h=Math.floor(255*a)),e&amp;&amp;(0===i?(s[t][n]=[],s[t][n][0]=Math.floor(e[1]),s[t][n][1]=Math.floor(e[2]),s[t][n][2]=Math.floor(e[3]),s[t][n][3]=h):1===i?(s[t][n+1]=[],s[t][n+1][0]=Math.floor(e[1]),s[t][n+1][1]=Math.floor(e[2]),s[t][n+1][2]=Math.floor(e[3]),s[t][n+1][3]=h):2===i?(s[t+1][n+1]=[],s[t+1][n+1][0]=Math.floor(e[1]),s[t+1][n+1][1]=Math.floor(e[2]),s[t+1][n+1][2]=Math.floor(e[3]),s[t+1][n+1][3]=h):3===i&amp;&amp;(s[t+1][n]=[],s[t+1][n][0]=Math.floor(e[1]),s[t+1][n][1]=Math.floor(e[2]),s[t+1][n][2]=Math.floor(e[3]),s[t+1][n][3]=h))}}e[3*t+1][3*n+1]=new x,e[3*t+1][3*n+2]=new x,e[3*t+2][3*n+1]=new x,e[3*t+2][3*n+2]=new x,e[3*t+1][3*n+1].x=(-4*e[3*t][3*n].x+6*(e[3*t][3*n+1].x+e[3*t+1][3*n].x)+-2*(e[3*t][3*n+3].x+e[3*t+3][3*n].x)+3*(e[3*t+3][3*n+1].x+e[3*t+1][3*n+3].x)+-1*e[3*t+3][3*n+3].x)/9,e[3*t+1][3*n+2].x=(-4*e[3*t][3*n+3].x+6*(e[3*t][3*n+2].x+e[3*t+1][3*n+3].x)+-2*(e[3*t][3*n].x+e[3*t+3][3*n+3].x)+3*(e[3*t+3][3*n+2].x+e[3*t+1][3*n].x)+-1*e[3*t+3][3*n].x)/9,e[3*t+2][3*n+1].x=(-4*e[3*t+3][3*n].x+6*(e[3*t+3][3*n+1].x+e[3*t+2][3*n].x)+-2*(e[3*t+3][3*n+3].x+e[3*t][3*n].x)+3*(e[3*t][3*n+1].x+e[3*t+2][3*n+3].x)+-1*e[3*t][3*n+3].x)/9,e[3*t+2][3*n+2].x=(-4*e[3*t+3][3*n+3].x+6*(e[3*t+3][3*n+2].x+e[3*t+2][3*n+3].x)+-2*(e[3*t+3][3*n].x+e[3*t][3*n+3].x)+3*(e[3*t][3*n+2].x+e[3*t+2][3*n].x)+-1*e[3*t][3*n].x)/9,e[3*t+1][3*n+1].y=(-4*e[3*t][3*n].y+6*(e[3*t][3*n+1].y+e[3*t+1][3*n].y)+-2*(e[3*t][3*n+3].y+e[3*t+3][3*n].y)+3*(e[3*t+3][3*n+1].y+e[3*t+1][3*n+3].y)+-1*e[3*t+3][3*n+3].y)/9,e[3*t+1][3*n+2].y=(-4*e[3*t][3*n+3].y+6*(e[3*t][3*n+2].y+e[3*t+1][3*n+3].y)+-2*(e[3*t][3*n].y+e[3*t+3][3*n+3].y)+3*(e[3*t+3][3*n+2].y+e[3*t+1][3*n].y)+-1*e[3*t+3][3*n].y)/9,e[3*t+2][3*n+1].y=(-4*e[3*t+3][3*n].y+6*(e[3*t+3][3*n+1].y+e[3*t+2][3*n].y)+-2*(e[3*t+3][3*n+3].y+e[3*t][3*n].y)+3*(e[3*t][3*n+1].y+e[3*t+2][3*n+3].y)+-1*e[3*t][3*n+3].y)/9,e[3*t+2][3*n+2].y=(-4*e[3*t+3][3*n+3].y+6*(e[3*t+3][3*n+2].y+e[3*t+2][3*n+3].y)+-2*(e[3*t+3][3*n].y+e[3*t][3*n+3].y)+3*(e[3*t][3*n+2].y+e[3*t+2][3*n].y)+-1*e[3*t][3*n].y)/9}}this.nodes=e,this.colors=s}paintMesh(t,e){let s=(this.nodes.length-1)/3,r=(this.nodes[0].length-1)/3;if(&quot;bilinear&quot;===this.type||s&lt;2||r&lt;2){let n;for(let o=0;o&lt;s;++o)for(let s=0;s&lt;r;++s){let r=[];for(let t=3*o,e=3*o+4;t&lt;e;++t)r.push(this.nodes[t].slice(3*s,3*s+4));let i=[];i.push(this.colors[o].slice(s,s+2)),i.push(this.colors[o+1].slice(s,s+2)),(n=new m(r,i)).paint(t,e)}}else{let n,o,a,h,l,d,u;const x=s,g=r;s++,r++;let w=new Array(s);for(let t=0;t&lt;s;++t){w[t]=new Array(r);for(let e=0;e&lt;r;++e)w[t][e]=[],w[t][e][0]=this.nodes[3*t][3*e],w[t][e][1]=this.colors[t][e]}for(let t=0;t&lt;s;++t)for(let e=0;e&lt;r;++e)0!==t&amp;&amp;t!==x&amp;&amp;(n=i(w[t-1][e][0],w[t][e][0]),o=i(w[t+1][e][0],w[t][e][0]),w[t][e][2]=c(w[t-1][e][1],w[t][e][1],w[t+1][e][1],n,o)),0!==e&amp;&amp;e!==g&amp;&amp;(n=i(w[t][e-1][0],w[t][e][0]),o=i(w[t][e+1][0],w[t][e][0]),w[t][e][3]=c(w[t][e-1][1],w[t][e][1],w[t][e+1][1],n,o));for(let t=0;t&lt;r;++t){w[0][t][2]=[],w[x][t][2]=[];for(let e=0;e&lt;4;++e)n=i(w[1][t][0],w[0][t][0]),o=i(w[x][t][0],w[x-1][t][0]),w[0][t][2][e]=n&gt;0?2*(w[1][t][1][e]-w[0][t][1][e])/n-w[1][t][2][e]:0,w[x][t][2][e]=o&gt;0?2*(w[x][t][1][e]-w[x-1][t][1][e])/o-w[x-1][t][2][e]:0}for(let t=0;t&lt;s;++t){w[t][0][3]=[],w[t][g][3]=[];for(let e=0;e&lt;4;++e)n=i(w[t][1][0],w[t][0][0]),o=i(w[t][g][0],w[t][g-1][0]),w[t][0][3][e]=n&gt;0?2*(w[t][1][1][e]-w[t][0][1][e])/n-w[t][1][3][e]:0,w[t][g][3][e]=o&gt;0?2*(w[t][g][1][e]-w[t][g-1][1][e])/o-w[t][g-1][3][e]:0}for(let s=0;s&lt;x;++s)for(let r=0;r&lt;g;++r){let n=i(w[s][r][0],w[s+1][r][0]),o=i(w[s][r+1][0],w[s+1][r+1][0]),c=i(w[s][r][0],w[s][r+1][0]),x=i(w[s+1][r][0],w[s+1][r+1][0]),g=[[],[],[],[]];for(let t=0;t&lt;4;++t){(d=[])[0]=w[s][r][1][t],d[1]=w[s+1][r][1][t],d[2]=w[s][r+1][1][t],d[3]=w[s+1][r+1][1][t],d[4]=w[s][r][2][t]*n,d[5]=w[s+1][r][2][t]*n,d[6]=w[s][r+1][2][t]*o,d[7]=w[s+1][r+1][2][t]*o,d[8]=w[s][r][3][t]*c,d[9]=w[s+1][r][3][t]*x,d[10]=w[s][r+1][3][t]*c,d[11]=w[s+1][r+1][3][t]*x,d[12]=0,d[13]=0,d[14]=0,d[15]=0,u=f(d);for(let e=0;e&lt;9;++e){g[t][e]=[];for(let s=0;s&lt;9;++s)g[t][e][s]=p(u,e/8,s/8),g[t][e][s]&gt;255?g[t][e][s]=255:g[t][e][s]&lt;0&amp;&amp;(g[t][e][s]=0)}}h=[];for(let t=3*s,e=3*s+4;t&lt;e;++t)h.push(this.nodes[t].slice(3*r,3*r+4));l=y(h);for(let s=0;s&lt;8;++s)for(let r=0;r&lt;8;++r)(a=new m(l[s][r],[[[g[0][s][r],g[1][s][r],g[2][s][r],g[3][s][r]],[g[0][s][r+1],g[1][s][r+1],g[2][s][r+1],g[3][s][r+1]]],[[g[0][s+1][r],g[1][s+1][r],g[2][s+1][r],g[3][s+1][r]],[g[0][s+1][r+1],g[1][s+1][r+1],g[2][s+1][r+1],g[3][s+1][r+1]]]])).paint(t,e)}}}transform(t){if(t instanceof x)for(let e=0,s=this.nodes.length;e&lt;s;++e)for(let s=0,r=this.nodes[0].length;s&lt;r;++s)this.nodes[e][s]=this.nodes[e][s].add(t);else if(t instanceof g)for(let e=0,s=this.nodes.length;e&lt;s;++e)for(let s=0,r=this.nodes[0].length;s&lt;r;++s)this.nodes[e][s]=this.nodes[e][s].transform(t)}scale(t){for(let e=0,s=this.nodes.length;e&lt;s;++e)for(let s=0,r=this.nodes[0].length;s&lt;r;++s)this.nodes[e][s]=this.nodes[e][s].scale(t)}}document.querySelectorAll(&quot;rect,circle,ellipse,path,text&quot;).forEach((r,n)=&gt;{let o=r.getAttribute(&quot;id&quot;);o||(o=&quot;patchjs_shape&quot;+n,r.setAttribute(&quot;id&quot;,o));const i=r.style.fill.match(/^url\(\s*&quot;?\s*#([^\s&quot;]+)&quot;?\s*\)/),a=r.style.stroke.match(/^url\(\s*&quot;?\s*#([^\s&quot;]+)&quot;?\s*\)/);if(i&amp;&amp;i[1]){const a=document.getElementById(i[1]);if(a&amp;&amp;&quot;meshgradient&quot;===a.nodeName){const i=r.getBBox();let l=document.createElementNS(s,&quot;canvas&quot;);d(l,{width:i.width,height:i.height});const c=l.getContext(&quot;2d&quot;);let u=c.createImageData(i.width,i.height);const f=new b(a);&quot;objectBoundingBox&quot;===a.getAttribute(&quot;gradientUnits&quot;)&amp;&amp;f.scale(new x(i.width,i.height));const p=a.getAttribute(&quot;gradientTransform&quot;);null!=p&amp;&amp;f.transform(h(p)),&quot;userSpaceOnUse&quot;===a.getAttribute(&quot;gradientUnits&quot;)&amp;&amp;f.transform(new x(-i.x,-i.y)),f.paintMesh(u.data,l.width),c.putImageData(u,0,0);const y=document.createElementNS(t,&quot;image&quot;);d(y,{width:i.width,height:i.height,x:i.x,y:i.y});let g=l.toDataURL();y.setAttributeNS(e,&quot;xlink:href&quot;,g),r.parentNode.insertBefore(y,r),r.style.fill=&quot;none&quot;;const w=document.createElementNS(t,&quot;use&quot;);w.setAttributeNS(e,&quot;xlink:href&quot;,&quot;#&quot;+o);const m=&quot;patchjs_clip&quot;+n,M=document.createElementNS(t,&quot;clipPath&quot;);M.setAttribute(&quot;id&quot;,m),M.appendChild(w),r.parentElement.insertBefore(M,r),y.setAttribute(&quot;clip-path&quot;,&quot;url(#&quot;+m+&quot;)&quot;),u=null,l=null,g=null}}if(a&amp;&amp;a[1]){const o=document.getElementById(a[1]);if(o&amp;&amp;&quot;meshgradient&quot;===o.nodeName){const i=parseFloat(r.style.strokeWidth.slice(0,-2))*(parseFloat(r.style.strokeMiterlimit)||parseFloat(r.getAttribute(&quot;stroke-miterlimit&quot;))||1),a=r.getBBox(),l=Math.trunc(a.width+i),c=Math.trunc(a.height+i),u=Math.trunc(a.x-i/2),f=Math.trunc(a.y-i/2);let p=document.createElementNS(s,&quot;canvas&quot;);d(p,{width:l,height:c});const y=p.getContext(&quot;2d&quot;);let g=y.createImageData(l,c);const w=new b(o);&quot;objectBoundingBox&quot;===o.getAttribute(&quot;gradientUnits&quot;)&amp;&amp;w.scale(new x(l,c));const m=o.getAttribute(&quot;gradientTransform&quot;);null!=m&amp;&amp;w.transform(h(m)),&quot;userSpaceOnUse&quot;===o.getAttribute(&quot;gradientUnits&quot;)&amp;&amp;w.transform(new x(-u,-f)),w.paintMesh(g.data,p.width),y.putImageData(g,0,0);const M=document.createElementNS(t,&quot;image&quot;);d(M,{width:l,height:c,x:0,y:0});let S=p.toDataURL();M.setAttributeNS(e,&quot;xlink:href&quot;,S);const k=&quot;pattern_clip&quot;+n,A=document.createElementNS(t,&quot;pattern&quot;);d(A,{id:k,patternUnits:&quot;userSpaceOnUse&quot;,width:l,height:c,x:u,y:f}),A.appendChild(M),o.parentNode.appendChild(A),r.style.stroke=&quot;url(#&quot;+k+&quot;)&quot;,g=null,p=null,S=null}}})}();
</script>
</svg>
